<?xml version="1.0" encoding="utf-8"?>
<!-- Generator: Adobe Illustrator 19.1.0, SVG Export Plug-In . SVG Version: 6.00 Build 0)  -->
<svg version="1.1" id="Layer_1" xmlns="http://www.w3.org/2000/svg" xmlns:xlink="http://www.w3.org/1999/xlink" x="0px" y="0px"
	 viewBox="0 0 309 119" style="enable-background:new 0 0 309 119;" xml:space="preserve">
<style type="text/css">
	.st0{fill:#005CB8;}
</style>
<g>
	<path d="M48.8,68.2h4.4c1.6,0,4,0.5,4,3.2c0,1.5-1,2.5-2.5,2.8v0c1.7,0.2,2.9,1.3,2.9,2.9c0,3.2-2.8,3.6-4.4,3.6h-4.4V68.2z
		 M51.3,73.2h1c1.1,0,2.4-0.2,2.4-1.5c0-1.5-1.3-1.6-2.4-1.6h-1V73.2z M51.3,78.7h1.2c1.2,0,2.6-0.3,2.6-1.7c0-1.6-1.3-1.9-2.6-1.9
		h-1.2V78.7z"/>
	<path d="M68.1,80.7h-2.3v-1.3h0c-0.7,0.9-1.8,1.5-3,1.5c-2.2,0-3.1-1.5-3.1-3.6v-5.8H62v4.9c0,1.1,0,2.7,1.6,2.7
		c1.7,0,2.1-1.9,2.1-3.1v-4.5h2.4V80.7z"/>
	<path d="M76.1,73.4c-0.7-0.3-1.3-0.4-2.2-0.4c-0.6,0-1.4,0.2-1.4,1c0,1.5,4.2,0.5,4.2,3.9c0,2.2-1.9,3-3.9,3
		c-0.9,0-1.8-0.2-2.7-0.4l0.1-2c0.8,0.4,1.5,0.6,2.4,0.6c0.6,0,1.6-0.2,1.6-1.1c0-1.8-4.2-0.6-4.2-3.9c0-2,1.7-2.9,3.6-2.9
		c1.1,0,1.9,0.2,2.6,0.3L76.1,73.4z"/>
	<path d="M78.6,67.5H81v2.3h-2.4V67.5z M78.6,71.5H81v9.2h-2.4V71.5z"/>
	<path d="M83.5,71.5h2.3v1.3h0c0.8-1.1,1.8-1.5,3-1.5c2.2,0,3.1,1.5,3.1,3.6v5.8h-2.4v-4.9c0-1.1,0-2.7-1.6-2.7
		c-1.7,0-2.1,1.9-2.1,3.1v4.5h-2.4V71.5z"/>
	<path d="M101.9,80.2c-0.9,0.5-1.9,0.7-3.2,0.7c-3.1,0-4.8-1.8-4.8-4.8c0-2.7,1.4-4.9,4.3-4.9c3.4,0,4.4,2.4,4.4,5.6h-6.4
		c0.1,1.5,1.1,2.3,2.6,2.3c1.2,0,2.2-0.4,3.1-0.9V80.2z M100.3,75.2c-0.1-1.2-0.6-2.2-2-2.2c-1.3,0-2,0.9-2.1,2.2H100.3z"/>
	<path d="M110,73.4c-0.7-0.3-1.3-0.4-2.2-0.4c-0.6,0-1.4,0.2-1.4,1c0,1.5,4.2,0.5,4.2,3.9c0,2.2-1.9,3-3.9,3c-0.9,0-1.8-0.2-2.7-0.4
		l0.1-2c0.8,0.4,1.5,0.6,2.4,0.6c0.6,0,1.6-0.2,1.6-1.1c0-1.8-4.2-0.6-4.2-3.9c0-2,1.7-2.9,3.6-2.9c1.1,0,1.9,0.2,2.6,0.3L110,73.4z
		"/>
	<path d="M118,73.4c-0.7-0.3-1.3-0.4-2.2-0.4c-0.6,0-1.4,0.2-1.4,1c0,1.5,4.2,0.5,4.2,3.9c0,2.2-1.9,3-3.9,3c-0.9,0-1.8-0.2-2.7-0.4
		l0.1-2c0.8,0.4,1.5,0.6,2.4,0.6c0.6,0,1.6-0.2,1.6-1.1c0-1.8-4.2-0.6-4.2-3.9c0-2,1.7-2.9,3.6-2.9c1.1,0,1.9,0.2,2.6,0.3L118,73.4z
		"/>
	<path d="M132.4,70.5c-0.8-0.3-1.7-0.5-2.6-0.5c-0.9,0-2,0.4-2,1.7c0,2.2,5.5,1.3,5.5,5.5c0,2.7-2.2,3.8-4.7,3.8
		c-1.4,0-2-0.2-3.2-0.5l0.2-2.3c0.9,0.5,1.8,0.8,2.8,0.8c1,0,2.2-0.5,2.2-1.6c0-2.4-5.5-1.4-5.5-5.5c0-2.8,2.2-3.8,4.4-3.8
		c1.1,0,2.1,0.1,3,0.4L132.4,70.5z"/>
	<path d="M142.8,80.2c-0.9,0.5-1.9,0.7-3.2,0.7c-3.1,0-4.8-1.8-4.8-4.8c0-2.7,1.4-4.9,4.3-4.9c3.4,0,4.4,2.4,4.4,5.6h-6.4
		c0.1,1.5,1.1,2.3,2.6,2.3c1.2,0,2.2-0.4,3.1-0.9V80.2z M141.2,75.2c-0.1-1.2-0.6-2.2-2-2.2c-1.3,0-2,0.9-2.1,2.2H141.2z"/>
	<path d="M145.4,71.5h2.1v2.1h0c0.1-0.9,1.1-2.3,2.5-2.3c0.2,0,0.5,0,0.7,0.1v2.4c-0.2-0.1-0.6-0.2-1.1-0.2c-2,0-2,2.4-2,3.8v3.4
		h-2.4V71.5z"/>
	<path d="M151.4,71.5h2.6l2.3,6.7h0l2.2-6.7h2.4l-3.4,9.2h-2.7L151.4,71.5z"/>
	<path d="M162.4,67.5h2.4v2.3h-2.4V67.5z M162.4,71.5h2.4v9.2h-2.4V71.5z"/>
	<path d="M173.4,73.5c-0.4-0.2-0.9-0.3-1.6-0.3c-1.5,0-2.4,1.2-2.4,2.9c0,1.7,0.8,3,2.5,3c0.7,0,1.4-0.3,1.8-0.4l0.1,2
		c-0.7,0.2-1.4,0.3-2.4,0.3c-3,0-4.6-2.1-4.6-4.9c0-2.7,1.6-4.8,4.5-4.8c1,0,1.7,0.1,2.3,0.3L173.4,73.5z"/>
	<path d="M182.7,80.2c-0.9,0.5-1.9,0.7-3.2,0.7c-3.1,0-4.8-1.8-4.8-4.8c0-2.7,1.4-4.9,4.3-4.9c3.4,0,4.4,2.4,4.4,5.6H177
		c0.1,1.5,1.1,2.3,2.6,2.3c1.2,0,2.2-0.4,3.1-0.9V80.2z M181.1,75.2c-0.1-1.2-0.6-2.2-2-2.2c-1.3,0-2,0.9-2.1,2.2H181.1z"/>
	<path d="M190.8,73.4c-0.7-0.3-1.3-0.4-2.2-0.4c-0.6,0-1.4,0.2-1.4,1c0,1.5,4.2,0.5,4.2,3.9c0,2.2-1.9,3-3.9,3
		c-0.9,0-1.8-0.2-2.7-0.4l0.1-2c0.8,0.4,1.5,0.6,2.4,0.6c0.6,0,1.6-0.2,1.6-1.1c0-1.8-4.2-0.6-4.2-3.9c0-2,1.7-2.9,3.6-2.9
		c1.1,0,1.9,0.2,2.6,0.3L190.8,73.4z"/>
	<path d="M202.1,68.2h2.8l4.9,12.5h-2.8l-1.1-2.9h-5.1l-1.1,2.9h-2.6L202.1,68.2z M203.5,70.7L203.5,70.7l-1.8,5.2h3.7L203.5,70.7z"
		/>
	<path d="M219.7,80.7h-2.3v-1.3h0c-0.7,0.9-1.8,1.5-3,1.5c-2.2,0-3.1-1.5-3.1-3.6v-5.8h2.4v4.9c0,1.1,0,2.7,1.6,2.7
		c1.7,0,2.1-1.9,2.1-3.1v-4.5h2.4V80.7z"/>
	<path d="M223,73.2h-1.8v-1.8h1.8v-1.8l2.4-0.8v2.6h2.1v1.8h-2.1v4.3c0,0.8,0.2,1.5,1.1,1.5c0.4,0,0.8-0.1,1.1-0.3l0.1,1.9
		c-0.5,0.1-1.1,0.2-1.8,0.2c-1.9,0-2.9-1.2-2.9-3V73.2z"/>
	<path d="M229.2,67.2h2.4v5.5h0c0.6-0.9,1.7-1.5,2.9-1.5c2.2,0,3.1,1.5,3.1,3.6v5.8h-2.4v-4.9c0-1.1,0-2.7-1.6-2.7
		c-1.7,0-2.1,1.9-2.1,3.1v4.5h-2.4V67.2z"/>
	<path d="M244.4,71.3c2.7,0,4.8,1.8,4.8,4.9c0,2.7-1.8,4.8-4.8,4.8c-3.1,0-4.8-2.1-4.8-4.8C239.6,73.1,241.7,71.3,244.4,71.3z
		 M244.4,79.1c1.8,0,2.3-1.7,2.3-3.2c0-1.4-0.8-2.7-2.3-2.7c-1.6,0-2.3,1.4-2.3,2.7C242.1,77.4,242.6,79.1,244.4,79.1z"/>
	<path d="M251.2,71.5h2.1v2.1h0c0.1-0.9,1.1-2.3,2.5-2.3c0.2,0,0.5,0,0.7,0.1v2.4c-0.2-0.1-0.6-0.2-1.1-0.2c-2,0-2,2.4-2,3.8v3.4
		h-2.4V71.5z"/>
	<path d="M258.2,67.5h2.4v2.3h-2.4V67.5z M258.2,71.5h2.4v9.2h-2.4V71.5z"/>
	<path d="M263.9,73.2h-1.8v-1.8h1.8v-1.8l2.4-0.8v2.6h2.1v1.8h-2.1v4.3c0,0.8,0.2,1.5,1.1,1.5c0.4,0,0.8-0.1,1.1-0.3l0.1,1.9
		c-0.5,0.1-1.1,0.2-1.8,0.2c-1.9,0-2.9-1.2-2.9-3V73.2z"/>
	<path d="M274,78.2L274,78.2l2.3-6.8h2.4l-3.5,9.2c-0.8,2-1.3,4.1-3.8,4.1c-0.6,0-1.1-0.1-1.7-0.3l0.2-1.8c0.3,0.1,0.6,0.2,1.2,0.2
		c1,0,1.6-0.7,1.6-1.7l-3.5-9.7h2.7L274,78.2z"/>
</g>
<path class="st0" d="M278.7,60.2V34.8h-63.2v25.5H278.7L278.7,60.2z M240.9,37.2l-4.4,20.5h-6.8l-4.3-14.2h-0.1l-2.9,14.2h-5.2
	l4.4-20.5h6.9l4.2,14.2h0.1l2.9-14.2H240.9L240.9,37.2z M260.5,37.2l-4.3,20.5h-5.5l1.8-8.8H246l-1.8,8.8h-5.5l4.3-20.5h5.5
	l-1.6,7.8h6.5l1.6-7.8H260.5L260.5,37.2z M276.3,37.8l-1.3,4.1c-1.1-0.5-2.5-0.9-4.5-0.9c-2.2,0-4,0.3-4,2c0,2.9,8,1.8,8,8
	c0,5.7-5.3,7.1-10.1,7.1c-2.1,0-4.6-0.5-6.4-1.1l1.3-4.2c1.1,0.7,3.3,1.2,5.1,1.2c1.7,0,4.4-0.3,4.4-2.4c0-3.3-8-2.1-8-7.8
	c0-5.3,4.7-6.9,9.2-6.9C272.5,36.9,274.9,37.1,276.3,37.8L276.3,37.8z"/>
</svg>
