<?xml version="1.0" encoding="utf-8"?>
<!-- Generator: Adobe Illustrator 19.1.0, SVG Export Plug-In . SVG Version: 6.00 Build 0)  -->
<svg version="1.1" id="Layer_1" xmlns="http://www.w3.org/2000/svg" xmlns:xlink="http://www.w3.org/1999/xlink" x="0px" y="0px"
	 viewBox="0 0 229.8 49.9" style="enable-background:new 0 0 229.8 49.9;" xml:space="preserve">
<style type="text/css">
	.st0{fill:#005CB8;}
</style>
<g>
	<path d="M0,33.4h4.4c1.6,0,4,0.5,4,3.2c0,1.5-1,2.5-2.5,2.8v0c1.7,0.2,2.9,1.3,2.9,2.9C8.8,45.5,6,46,4.4,46H0V33.4z M2.5,38.5h1
		c1.1,0,2.4-0.2,2.4-1.5c0-1.5-1.3-1.6-2.4-1.6h-1V38.5z M2.5,44h1.2c1.2,0,2.6-0.3,2.6-1.7c0-1.6-1.3-1.9-2.6-1.9H2.5V44z"/>
	<path d="M19.3,46H17v-1.3h0c-0.7,0.9-1.8,1.5-3,1.5c-2.2,0-3.1-1.5-3.1-3.6v-5.8h2.4v4.9c0,1.1,0,2.7,1.6,2.7
		c1.7,0,2.1-1.9,2.1-3.1v-4.5h2.4V46z"/>
	<path d="M27.2,38.7c-0.7-0.3-1.3-0.4-2.2-0.4c-0.6,0-1.4,0.2-1.4,1c0,1.5,4.2,0.5,4.2,3.9c0,2.2-1.9,3-3.9,3
		c-0.9,0-1.8-0.2-2.7-0.4l0.1-2c0.8,0.4,1.5,0.6,2.4,0.6c0.6,0,1.6-0.2,1.6-1.1c0-1.8-4.2-0.6-4.2-3.9c0-2,1.7-2.9,3.6-2.9
		c1.1,0,1.9,0.2,2.6,0.3L27.2,38.7z"/>
	<path d="M29.8,32.7h2.4V35h-2.4V32.7z M29.8,36.7h2.4V46h-2.4V36.7z"/>
	<path d="M34.7,36.7H37V38h0c0.8-1.1,1.8-1.5,3-1.5c2.2,0,3.1,1.5,3.1,3.6V46h-2.4V41c0-1.1,0-2.7-1.6-2.7c-1.7,0-2.1,1.9-2.1,3.1
		V46h-2.4V36.7z"/>
	<path d="M53.1,45.4c-0.9,0.5-1.9,0.7-3.2,0.7c-3.1,0-4.8-1.8-4.8-4.8c0-2.7,1.4-4.9,4.3-4.9c3.4,0,4.4,2.4,4.4,5.6h-6.4
		c0.1,1.5,1.1,2.3,2.6,2.3c1.2,0,2.2-0.4,3.1-0.9V45.4z M51.5,40.4c-0.1-1.2-0.6-2.2-2-2.2c-1.3,0-2,0.9-2.1,2.2H51.5z"/>
	<path d="M61.2,38.7c-0.7-0.3-1.3-0.4-2.2-0.4c-0.6,0-1.4,0.2-1.4,1c0,1.5,4.2,0.5,4.2,3.9c0,2.2-1.9,3-3.9,3
		c-0.9,0-1.8-0.2-2.7-0.4l0.1-2c0.8,0.4,1.5,0.6,2.4,0.6c0.6,0,1.6-0.2,1.6-1.1c0-1.8-4.2-0.6-4.2-3.9c0-2,1.7-2.9,3.6-2.9
		c1.1,0,1.9,0.2,2.6,0.3L61.2,38.7z"/>
	<path d="M69.1,38.7c-0.7-0.3-1.3-0.4-2.2-0.4c-0.6,0-1.4,0.2-1.4,1c0,1.5,4.2,0.5,4.2,3.9c0,2.2-1.9,3-3.9,3
		c-0.9,0-1.8-0.2-2.7-0.4l0.1-2c0.8,0.4,1.5,0.6,2.4,0.6c0.6,0,1.6-0.2,1.6-1.1c0-1.8-4.2-0.6-4.2-3.9c0-2,1.7-2.9,3.6-2.9
		c1.1,0,1.9,0.2,2.6,0.3L69.1,38.7z"/>
	<path d="M83.5,35.7c-0.8-0.3-1.7-0.5-2.6-0.5c-0.9,0-2,0.4-2,1.7c0,2.2,5.5,1.3,5.5,5.5c0,2.7-2.2,3.8-4.7,3.8
		c-1.4,0-2-0.2-3.2-0.5l0.2-2.3c0.9,0.5,1.8,0.8,2.8,0.8c1,0,2.2-0.5,2.2-1.6c0-2.4-5.5-1.4-5.5-5.5c0-2.8,2.2-3.8,4.4-3.8
		c1.1,0,2.1,0.1,3,0.4L83.5,35.7z"/>
	<path d="M94,45.4c-0.9,0.5-1.9,0.7-3.2,0.7c-3.1,0-4.8-1.8-4.8-4.8c0-2.7,1.4-4.9,4.3-4.9c3.4,0,4.4,2.4,4.4,5.6h-6.4
		c0.1,1.5,1.1,2.3,2.6,2.3c1.2,0,2.2-0.4,3.1-0.9V45.4z M92.4,40.4c-0.1-1.2-0.6-2.2-2-2.2c-1.3,0-2,0.9-2.1,2.2H92.4z"/>
	<path d="M96.6,36.7h2.1v2.1h0c0.1-0.9,1.1-2.3,2.5-2.3c0.2,0,0.5,0,0.7,0.1V39c-0.2-0.1-0.6-0.2-1.1-0.2c-2,0-2,2.4-2,3.8V46h-2.4
		V36.7z"/>
	<path d="M102.5,36.7h2.6l2.3,6.7h0l2.2-6.7h2.4l-3.4,9.2H106L102.5,36.7z"/>
	<path d="M113.6,32.7h2.4V35h-2.4V32.7z M113.6,36.7h2.4V46h-2.4V36.7z"/>
	<path d="M124.5,38.7c-0.4-0.2-0.9-0.3-1.6-0.3c-1.5,0-2.4,1.2-2.4,2.9c0,1.7,0.8,3,2.5,3c0.7,0,1.4-0.3,1.8-0.4l0.1,2
		c-0.7,0.2-1.4,0.3-2.4,0.3c-3,0-4.6-2.1-4.6-4.9c0-2.7,1.6-4.8,4.5-4.8c1,0,1.7,0.1,2.3,0.3L124.5,38.7z"/>
	<path d="M133.9,45.4c-0.9,0.5-1.9,0.7-3.2,0.7c-3.1,0-4.8-1.8-4.8-4.8c0-2.7,1.4-4.9,4.3-4.9c3.4,0,4.4,2.4,4.4,5.6h-6.4
		c0.1,1.5,1.1,2.3,2.6,2.3c1.2,0,2.2-0.4,3.1-0.9V45.4z M132.3,40.4c-0.1-1.2-0.6-2.2-2-2.2c-1.3,0-2,0.9-2.1,2.2H132.3z"/>
	<path d="M142,38.7c-0.7-0.3-1.3-0.4-2.2-0.4c-0.6,0-1.4,0.2-1.4,1c0,1.5,4.2,0.5,4.2,3.9c0,2.2-1.9,3-3.9,3c-0.9,0-1.8-0.2-2.7-0.4
		l0.1-2c0.8,0.4,1.5,0.6,2.4,0.6c0.6,0,1.6-0.2,1.6-1.1c0-1.8-4.2-0.6-4.2-3.9c0-2,1.7-2.9,3.6-2.9c1.1,0,1.9,0.2,2.6,0.3L142,38.7z
		"/>
	<path d="M153.3,33.4h2.8L161,46h-2.8l-1.1-2.9h-5.1L151,46h-2.6L153.3,33.4z M154.6,35.9L154.6,35.9l-1.8,5.2h3.7L154.6,35.9z"/>
	<path d="M170.9,46h-2.3v-1.3h0c-0.7,0.9-1.8,1.5-3,1.5c-2.2,0-3.1-1.5-3.1-3.6v-5.8h2.4v4.9c0,1.1,0,2.7,1.6,2.7
		c1.7,0,2.1-1.9,2.1-3.1v-4.5h2.4V46z"/>
	<path d="M174.2,38.5h-1.8v-1.8h1.8v-1.8l2.4-0.8v2.6h2.1v1.8h-2.1v4.3c0,0.8,0.2,1.5,1.1,1.5c0.4,0,0.8-0.1,1.1-0.3l0.1,1.9
		c-0.5,0.1-1.1,0.2-1.8,0.2c-1.9,0-2.9-1.2-2.9-3V38.5z"/>
	<path d="M180.4,32.5h2.4V38h0c0.6-0.9,1.7-1.5,2.9-1.5c2.2,0,3.1,1.5,3.1,3.6V46h-2.4V41c0-1.1,0-2.7-1.6-2.7
		c-1.7,0-2.1,1.9-2.1,3.1V46h-2.4V32.5z"/>
	<path d="M195.6,36.5c2.7,0,4.8,1.8,4.8,4.9c0,2.7-1.8,4.8-4.8,4.8c-3.1,0-4.8-2.1-4.8-4.8C190.8,38.3,192.9,36.5,195.6,36.5z
		 M195.6,44.3c1.8,0,2.3-1.7,2.3-3.2c0-1.4-0.8-2.7-2.3-2.7c-1.6,0-2.3,1.4-2.3,2.7C193.3,42.6,193.8,44.3,195.6,44.3z"/>
	<path d="M202.4,36.7h2.1v2.1h0c0.1-0.9,1.1-2.3,2.5-2.3c0.2,0,0.5,0,0.7,0.1V39c-0.2-0.1-0.6-0.2-1.1-0.2c-2,0-2,2.4-2,3.8V46h-2.4
		V36.7z"/>
	<path d="M209.4,32.7h2.4V35h-2.4V32.7z M209.4,36.7h2.4V46h-2.4V36.7z"/>
	<path d="M215.1,38.5h-1.8v-1.8h1.8v-1.8l2.4-0.8v2.6h2.1v1.8h-2.1v4.3c0,0.8,0.2,1.5,1.1,1.5c0.4,0,0.8-0.1,1.1-0.3l0.1,1.9
		c-0.5,0.1-1.1,0.2-1.8,0.2c-1.9,0-2.9-1.2-2.9-3V38.5z"/>
	<path d="M225.1,43.5L225.1,43.5l2.3-6.8h2.4l-3.5,9.2c-0.8,2-1.3,4.1-3.8,4.1c-0.6,0-1.1-0.1-1.7-0.3l0.2-1.8
		c0.3,0.1,0.6,0.2,1.2,0.2c1,0,1.6-0.7,1.6-1.7l-3.5-9.7h2.7L225.1,43.5z"/>
</g>
<path class="st0" d="M229.8,25.5V0h-63.2v25.5H229.8L229.8,25.5z M192,2.5l-4.4,20.5h-6.8l-4.3-14.2h-0.1l-2.9,14.2h-5.2l4.4-20.5
	h6.9l4.2,14.2h0.1l2.9-14.2H192L192,2.5z M211.6,2.5l-4.3,20.5h-5.5l1.8-8.8h-6.5l-1.8,8.8h-5.5l4.3-20.5h5.5l-1.6,7.8h6.5l1.6-7.8
	H211.6L211.6,2.5z M227.5,3l-1.3,4.1c-1.1-0.5-2.5-0.9-4.5-0.9c-2.2,0-4,0.3-4,2c0,2.9,8,1.8,8,8c0,5.7-5.3,7.1-10.1,7.1
	c-2.1,0-4.6-0.5-6.4-1.1l1.3-4.2c1.1,0.7,3.3,1.2,5.1,1.2c1.7,0,4.4-0.3,4.4-2.4c0-3.3-8-2.1-8-7.8c0-5.3,4.7-6.9,9.2-6.9
	C223.7,2.1,226.1,2.4,227.5,3L227.5,3z"/>
</svg>
