<?xml version="1.0" encoding="utf-8"?>
<!-- Generator: Adobe Illustrator 19.1.0, SVG Export Plug-In . SVG Version: 6.00 Build 0)  -->
<svg version="1.1" id="Layer_1" xmlns="http://www.w3.org/2000/svg" xmlns:xlink="http://www.w3.org/1999/xlink" x="0px" y="0px"
	 viewBox="-392.2 396.7 229.9 49.9" style="enable-background:new -392.2 396.7 229.9 49.9;" xml:space="preserve">
<style type="text/css">
	.st0{fill:#005CB8;}
</style>
<g>
	<path d="M-392.2,430.1h4.4c1.6,0,4,0.5,4,3.2c0,1.5-1,2.5-2.5,2.8l0,0c1.7,0.2,2.9,1.3,2.9,2.9c0,3.2-2.8,3.6-4.4,3.6h-4.4V430.1z
		 M-389.7,435.1h1c1.1,0,2.4-0.2,2.4-1.5c0-1.5-1.3-1.6-2.4-1.6h-1V435.1z M-389.7,440.6h1.2c1.2,0,2.6-0.3,2.6-1.7
		c0-1.6-1.3-1.9-2.6-1.9h-1.2V440.6z"/>
	<path d="M-372.9,442.6h-2.3v-1.3l0,0c-0.7,0.9-1.8,1.5-3,1.5c-2.2,0-3.1-1.5-3.1-3.6v-5.8h2.3v4.9c0,1.1,0,2.7,1.6,2.7
		c1.7,0,2.1-1.9,2.1-3.1v-4.5h2.4V442.6z"/>
	<path d="M-364.9,435.3c-0.7-0.3-1.3-0.4-2.2-0.4c-0.6,0-1.4,0.2-1.4,1c0,1.5,4.2,0.5,4.2,3.9c0,2.2-1.9,3-3.9,3
		c-0.9,0-1.8-0.2-2.7-0.4l0.1-2c0.8,0.4,1.5,0.6,2.4,0.6c0.6,0,1.6-0.2,1.6-1.1c0-1.8-4.2-0.6-4.2-3.9c0-2,1.7-2.9,3.6-2.9
		c1.1,0,1.9,0.2,2.6,0.3L-364.9,435.3z"/>
	<path d="M-362.4,429.4h2.4v2.3h-2.4V429.4z M-362.4,433.4h2.4v9.2h-2.4V433.4z"/>
	<path d="M-357.5,433.4h2.3v1.3l0,0c0.8-1.1,1.8-1.5,3-1.5c2.2,0,3.1,1.5,3.1,3.6v5.8h-2.4v-4.9c0-1.1,0-2.7-1.6-2.7
		c-1.7,0-2.1,1.9-2.1,3.1v4.5h-2.4v-9.2H-357.5z"/>
	<path d="M-339.1,442.1c-0.9,0.5-1.9,0.7-3.2,0.7c-3.1,0-4.8-1.8-4.8-4.8c0-2.7,1.4-4.9,4.3-4.9c3.4,0,4.4,2.4,4.4,5.6h-6.4
		c0.1,1.5,1.1,2.3,2.6,2.3c1.2,0,2.2-0.4,3.1-0.9V442.1z M-340.7,437.1c-0.1-1.2-0.6-2.2-2-2.2c-1.3,0-2,0.9-2.1,2.2H-340.7z"/>
	<path d="M-331,435.3c-0.7-0.3-1.3-0.4-2.2-0.4c-0.6,0-1.4,0.2-1.4,1c0,1.5,4.2,0.5,4.2,3.9c0,2.2-1.9,3-3.9,3
		c-0.9,0-1.8-0.2-2.7-0.4l0.1-2c0.8,0.4,1.5,0.6,2.4,0.6c0.6,0,1.6-0.2,1.6-1.1c0-1.8-4.2-0.6-4.2-3.9c0-2,1.7-2.9,3.6-2.9
		c1.1,0,1.9,0.2,2.6,0.3L-331,435.3z"/>
	<path d="M-323,435.3c-0.7-0.3-1.3-0.4-2.2-0.4c-0.6,0-1.4,0.2-1.4,1c0,1.5,4.2,0.5,4.2,3.9c0,2.2-1.9,3-3.9,3
		c-0.9,0-1.8-0.2-2.7-0.4l0.1-2c0.8,0.4,1.5,0.6,2.4,0.6c0.6,0,1.6-0.2,1.6-1.1c0-1.8-4.2-0.6-4.2-3.9c0-2,1.7-2.9,3.6-2.9
		c1.1,0,1.9,0.2,2.6,0.3L-323,435.3z"/>
	<path d="M-308.6,432.4c-0.8-0.3-1.7-0.5-2.6-0.5s-2,0.4-2,1.7c0,2.2,5.5,1.3,5.5,5.5c0,2.7-2.2,3.8-4.7,3.8c-1.4,0-2-0.2-3.2-0.5
		l0.2-2.3c0.9,0.5,1.8,0.8,2.8,0.8s2.2-0.5,2.2-1.6c0-2.4-5.5-1.4-5.5-5.5c0-2.8,2.2-3.8,4.4-3.8c1.1,0,2.1,0.1,3,0.4L-308.6,432.4z
		"/>
	<path d="M-298.2,442.1c-0.9,0.5-1.9,0.7-3.2,0.7c-3.1,0-4.8-1.8-4.8-4.8c0-2.7,1.4-4.9,4.3-4.9c3.4,0,4.4,2.4,4.4,5.6h-6.4
		c0.1,1.5,1.1,2.3,2.6,2.3c1.2,0,2.2-0.4,3.1-0.9L-298.2,442.1L-298.2,442.1z M-299.8,437.1c-0.1-1.2-0.6-2.2-2-2.2
		c-1.3,0-2,0.9-2.1,2.2H-299.8z"/>
	<path d="M-295.6,433.4h2.1v2.1l0,0c0.1-0.9,1.1-2.3,2.5-2.3c0.2,0,0.5,0,0.7,0.1v2.4c-0.2-0.1-0.6-0.2-1.1-0.2c-2,0-2,2.4-2,3.8
		v3.4h-2.4v-9.3H-295.6z"/>
	<path d="M-289.6,433.4h2.6l2.3,6.7l0,0l2.2-6.7h2.4l-3.4,9.2h-2.7L-289.6,433.4z"/>
	<path d="M-278.6,429.4h2.4v2.3h-2.4V429.4z M-278.6,433.4h2.4v9.2h-2.4V433.4z"/>
	<path d="M-267.6,435.4c-0.4-0.2-0.9-0.3-1.6-0.3c-1.5,0-2.4,1.2-2.4,2.9c0,1.7,0.8,3,2.5,3c0.7,0,1.4-0.3,1.8-0.4l0.1,2
		c-0.7,0.2-1.4,0.3-2.4,0.3c-3,0-4.6-2.1-4.6-4.9c0-2.7,1.6-4.8,4.5-4.8c1,0,1.7,0.1,2.3,0.3L-267.6,435.4z"/>
	<path d="M-258.3,442.1c-0.9,0.5-1.9,0.7-3.2,0.7c-3.1,0-4.8-1.8-4.8-4.8c0-2.7,1.4-4.9,4.3-4.9c3.4,0,4.4,2.4,4.4,5.6h-6.4
		c0.1,1.5,1.1,2.3,2.6,2.3c1.2,0,2.2-0.4,3.1-0.9L-258.3,442.1L-258.3,442.1z M-259.9,437.1c-0.1-1.2-0.6-2.2-2-2.2
		c-1.3,0-2,0.9-2.1,2.2H-259.9z"/>
	<path d="M-250.2,435.3c-0.7-0.3-1.3-0.4-2.2-0.4c-0.6,0-1.4,0.2-1.4,1c0,1.5,4.2,0.5,4.2,3.9c0,2.2-1.9,3-3.9,3
		c-0.9,0-1.8-0.2-2.7-0.4l0.1-2c0.8,0.4,1.5,0.6,2.4,0.6c0.6,0,1.6-0.2,1.6-1.1c0-1.8-4.2-0.6-4.2-3.9c0-2,1.7-2.9,3.6-2.9
		c1.1,0,1.9,0.2,2.6,0.3L-250.2,435.3z"/>
	<path d="M-238.9,430.1h2.8l4.9,12.5h-2.8l-1.1-2.9h-5.1l-1.1,2.9h-2.6L-238.9,430.1z M-237.5,432.6L-237.5,432.6l-1.8,5.2h3.7
		L-237.5,432.6z"/>
	<path d="M-221.3,442.6h-2.3v-1.3l0,0c-0.7,0.9-1.8,1.5-3,1.5c-2.2,0-3.1-1.5-3.1-3.6v-5.8h2.4v4.9c0,1.1,0,2.7,1.6,2.7
		c1.7,0,2.1-1.9,2.1-3.1v-4.5h2.4L-221.3,442.6L-221.3,442.6z"/>
	<path d="M-218,435.1h-1.8v-1.8h1.8v-1.8l2.4-0.8v2.6h2.1v1.8h-2.1v4.3c0,0.8,0.2,1.5,1.1,1.5c0.4,0,0.8-0.1,1.1-0.3l0.1,1.9
		c-0.5,0.1-1.1,0.2-1.8,0.2c-1.9,0-2.9-1.2-2.9-3L-218,435.1L-218,435.1z"/>
	<path d="M-211.8,429.1h2.4v5.5l0,0c0.6-0.9,1.7-1.5,2.9-1.5c2.2,0,3.1,1.5,3.1,3.6v5.8h-2.4v-4.9c0-1.1,0-2.7-1.6-2.7
		c-1.7,0-2.1,1.9-2.1,3.1v4.5h-2.4v-13.4H-211.8z"/>
	<path d="M-196.6,433.2c2.7,0,4.8,1.8,4.8,4.9c0,2.7-1.8,4.8-4.8,4.8c-3.1,0-4.8-2.1-4.8-4.8C-201.4,435-199.3,433.2-196.6,433.2z
		 M-196.6,441c1.8,0,2.3-1.7,2.3-3.2c0-1.4-0.8-2.7-2.3-2.7c-1.6,0-2.3,1.4-2.3,2.7C-198.9,439.3-198.4,441-196.6,441z"/>
	<path d="M-189.8,433.4h2.1v2.1l0,0c0.1-0.9,1.1-2.3,2.5-2.3c0.2,0,0.5,0,0.7,0.1v2.4c-0.2-0.1-0.6-0.2-1.1-0.2c-2,0-2,2.4-2,3.8
		v3.4h-2.4v-9.3H-189.8z"/>
	<path d="M-182.8,429.4h2.4v2.3h-2.4V429.4z M-182.8,433.4h2.4v9.2h-2.4V433.4z"/>
	<path d="M-177.1,435.1h-1.8v-1.8h1.8v-1.8l2.4-0.8v2.6h2.1v1.8h-2.1v4.3c0,0.8,0.2,1.5,1.1,1.5c0.4,0,0.8-0.1,1.1-0.3l0.1,1.9
		c-0.5,0.1-1.1,0.2-1.8,0.2c-1.9,0-2.9-1.2-2.9-3L-177.1,435.1L-177.1,435.1z"/>
	<path d="M-167,440.1L-167,440.1l2.3-6.8h2.4l-3.5,9.2c-0.8,2-1.3,4.1-3.8,4.1c-0.6,0-1.1-0.1-1.7-0.3l0.2-1.8
		c0.3,0.1,0.6,0.2,1.2,0.2c1,0,1.6-0.7,1.6-1.7l-3.5-9.7h2.7L-167,440.1z"/>
</g>
<path class="st0" d="M-162.3,422.1v-25.4h-63.2v25.5h63.2V422.1z M-200.1,399.1l-4.4,20.5h-6.8l-4.3-14.2h-0.1l-2.9,14.2h-5.2
	l4.4-20.5h6.9l4.2,14.2h0.1l2.9-14.2H-200.1L-200.1,399.1z M-180.5,399.1l-4.3,20.5h-5.5l1.8-8.8h-6.5l-1.8,8.8h-5.5l4.3-20.5h5.5
	l-1.6,7.8h6.5l1.6-7.8H-180.5L-180.5,399.1z M-164.7,399.7l-1.3,4.1c-1.1-0.5-2.5-0.9-4.5-0.9c-2.2,0-4,0.3-4,2c0,2.9,8,1.8,8,8
	c0,5.7-5.3,7.1-10.1,7.1c-2.1,0-4.6-0.5-6.4-1.1l1.3-4.2c1.1,0.7,3.3,1.2,5.1,1.2c1.7,0,4.4-0.3,4.4-2.4c0-3.3-8-2.1-8-7.8
	c0-5.3,4.7-6.9,9.2-6.9C-168.5,398.8-166.1,399-164.7,399.7L-164.7,399.7z"/>
</svg>
