<?xml version="1.0" encoding="utf-8"?>
<!-- Generator: Adobe Illustrator 19.1.0, SVG Export Plug-In . SVG Version: 6.00 Build 0)  -->
<svg version="1.1" id="Layer_1" xmlns="http://www.w3.org/2000/svg" xmlns:xlink="http://www.w3.org/1999/xlink" x="0px" y="0px"
	 viewBox="-375 538.8 91 93.6" style="enable-background:new -375 538.8 91 93.6;" xml:space="preserve">
<style type="text/css">
	.st0{fill:#FFFFFF;}
</style>
<path class="st0" d="M-367.6,561.6c0,0.5,0,0.9,0,1.4c-0.1,9.1,2.6,14,4.9,18c2.2,4,4.1,7.2,4.2,15.8c0,11.7,1.9,19.1,4.7,23.9
	c2.8,4.8,6.7,6.8,10,6.8h0.1c0.9,0,1.8-0.1,2.6-0.4c1.2-0.4,2.2-1.4,2.7-2.3c0.5-0.9,0.8-1.9,1-2.9c0.4-2,0.4-4.2,0.5-6.6
	c0.1-4.8,0.2-10.5,1.6-15.4c0.6-2.1,1.4-4.3,2.4-5.7c1-1.4,1.8-2.1,3.4-2.3c1.6,0.2,2.4,0.8,3.4,2.3c1,1.5,1.7,3.7,2.4,5.7
	c1.9,6.4,1.4,14.1,1.8,19.6c0.2,1.9,0.4,3.6,1.3,5.2c0.5,0.9,1.5,1.9,2.7,2.3c0.8,0.3,1.7,0.4,2.6,0.4c3.3,0,7.3-2,10.1-6.8
	c2.8-4.8,4.7-12.2,4.7-23.9c0.1-8.6,1.9-11.8,4.2-15.8c2.3-4,5-8.9,4.9-18c0-0.5,0-0.9,0-1.4c-0.1-7.4-3.6-12.9-8.5-16.1
	c-4.8-3.2-10.8-4.4-16.5-4.4c-4.8,0-9.4,0.8-13.1,2.3c-3.8-1.5-8.4-2.3-13.1-2.3c-5.7,0-11.6,1.2-16.5,4.4
	C-363.9,548.6-367.4,554.2-367.6,561.6L-367.6,561.6 M-357.6,578.1c-2.3-4.1-4.1-7-4.2-15.1c0-0.4,0-0.8,0-1.3
	c0.2-5.7,2.5-9,5.9-11.4c2.6-1.8,4.7-2.6,8.3-3l3.2,6.2l-7.7-0.5l16.7,22.1l-7.1-17.5l7.6-1l-3.9-9.4c3.6,0.3,5.6,1,8,2l1.2,0.5
	l1.2-0.5c3-1.4,7.4-2.3,11.9-2.3c4.9,0,9.7,1.1,13.2,3.4c3.4,2.4,5.7,5.7,5.9,11.4c0,0.4,0,0.9,0,1.3c-0.1,8.1-1.9,11-4.2,15.1
	c-2.3,4-5,9.2-4.9,18.7c0,11.1-1.9,17.5-3.9,21c-2.1,3.4-4,3.9-5,4c-0.1,0-0.2,0-0.3,0c-0.1-0.2-0.2-0.5-0.3-0.9
	c-0.3-1.2-0.4-3.2-0.4-5.6c-0.1-4.8-0.1-11-1.9-16.9c-0.7-2.2-1.5-4.9-3.1-7.3c-1.6-2.4-4.3-4.7-8.1-4.9l-0.2,0l-0.2,0
	c-3.8,0.2-6.5,2.5-8.1,4.9c-1.6,2.4-2.4,5.1-3.1,7.3c-2.3,7.8-1.6,16.2-2.1,20.9c-0.1,1.3-0.3,2.2-0.5,2.6c-0.1,0-0.2,0-0.3,0
	c-1,0-3-0.5-5-4c-2-3.4-3.9-9.9-3.9-21C-352.6,587.3-355.2,582.1-357.6,578.1"/>
</svg>
