<?xml version="1.0" encoding="utf-8"?>
<!-- Generator: Adobe Illustrator 19.1.0, SVG Export Plug-In . SVG Version: 6.00 Build 0)  -->
<svg version="1.1" id="Layer_1" xmlns="http://www.w3.org/2000/svg" xmlns:xlink="http://www.w3.org/1999/xlink" x="0px" y="0px"
	 viewBox="-388 573.1 64 26.7" style="enable-background:new -388 573.1 64 26.7;" xml:space="preserve">
<style type="text/css">
	.st0{fill:#808080;}
</style>
<g>
	<path class="st0" d="M-324.6,579.3c-0.2-1-2-1.3-2-1.3c-2.3-0.3-4.3-0.5-6.2-0.6c-2.8-0.2-5.3-0.3-7.6-0.3c-3.3,0-6.3,0.2-9.1,0.5
		c-2.1,0.3-4.3,0.5-6.5,0.5c-2.3,0-4.5-0.3-6.6-0.5c-2.9-0.4-5.8-0.5-9.1-0.5c-2.3,0-4.8,0.1-7.6,0.3c-1.9,0.1-3.9,0.3-6.2,0.6
		c0,0-1.9,0.3-2,1.3c-0.1,0.8-0.2,2.2,0.4,3c0.9,1.1,1.3,2.1,1.3,3.4c0.1,2.7,0.9,5.3,2.3,7.8c1.4,2.4,3.4,3.8,6.2,4.2
		c1.8,0.3,3.6,0.4,5.4,0.4c1.7,0,3.4-0.1,5-0.4c3.8-0.6,6.5-2.8,7.7-6.2c0.6-1.8,1-3.7,1.4-5.6c0.1-0.5,0.2-1,0.3-1.5
		c0.3-1.2,0.7-1.4,1.5-1.4c0.8,0,1.2,0.2,1.5,1.4c0.1,0.5,0.2,1,0.3,1.5c0.4,1.8,0.8,3.7,1.4,5.6c1.2,3.5,3.8,5.6,7.7,6.2
		c1.6,0.3,3.3,0.4,5,0.4c1.7,0,3.5-0.1,5.4-0.4c2.7-0.4,4.8-1.8,6.2-4.2c1.4-2.5,2.2-5.1,2.3-7.8c0.1-1.3,0.5-2.3,1.3-3.4
		C-324.3,581.4-324.4,580-324.6,579.3z M-344.3,594.4c-3.7-0.6-5.8-2.8-6.3-6.6c-0.1-0.6-0.1-1.2-0.2-1.8c0-0.4-0.1-0.8-0.1-1.3
		c-0.1-1.4,0.5-2.4,1.8-2.9c1.7-0.6,3.4-1,5-1.2c1.5-0.2,2.8-0.2,4.1-0.2c2.3,0,4.4,0.3,6.3,0.8c3,0.8,3.7,1.7,3.5,4.7
		c-0.1,1.9-0.5,3.7-1,5.2c-0.8,2.1-2.6,3.3-5.6,3.6c-0.8,0.1-1.6,0.1-2.4,0.1c-0.4,0-0.8,0-1.2,0.1c-0.3,0-0.7-0.1-1.1-0.1
		C-342.4,594.7-343.3,594.6-344.3,594.4z M-370.5,594.7c-0.4,0-0.7,0-1.1,0.1c-0.4,0-0.8,0-1.2-0.1c-0.9,0-1.7-0.1-2.4-0.1
		c-2.9-0.3-4.8-1.5-5.6-3.6c-0.6-1.5-0.9-3.3-1-5.2c-0.2-2.9,0.5-3.8,3.5-4.7c1.9-0.5,4-0.8,6.3-0.8c1.3,0,2.6,0.1,4.1,0.2
		c1.6,0.2,3.3,0.6,5,1.2c1.3,0.5,1.9,1.5,1.8,2.9c0,0.4-0.1,0.9-0.1,1.3c0,0.6-0.1,1.2-0.2,1.8c-0.5,3.8-2.5,5.9-6.3,6.6
		C-368.7,594.6-369.6,594.7-370.5,594.7z"/>
	<path class="st0" d="M-370.6,592.2c0.2,0,0.3-0.1,0.4-0.2c0.1-0.1,0.1-0.3,0.1-0.5c-0.1-0.3-0.4-0.6-0.7-0.5
		c-2.6,0.4-4.6,0-5.9-1.1c-1.6-1.4-1.4-3.6-1.4-3.6c0-0.3-0.2-0.6-0.6-0.7c0,0,0,0,0,0c-0.3,0-0.6,0.3-0.6,0.6
		c0,0.1-0.2,2.8,1.8,4.6c1.1,1,2.7,1.6,4.8,1.6v0.1l0,0l0-0.1C-372.1,592.4-371.4,592.4-370.6,592.2z"/>
	<path class="st0" d="M-341.4,592c0.1,0.1,0.2,0.2,0.4,0.2c0.8,0.1,1.5,0.2,2.2,0.2h0c2,0,3.6-0.5,4.8-1.6c2-1.8,1.8-4.5,1.8-4.6
		c0-0.3-0.3-0.6-0.7-0.6c-0.3,0-0.6,0.3-0.6,0.7c0,0,0.1,2.2-1.4,3.6c-1.2,1.1-3.2,1.5-5.9,1.1c0,0-0.1,0-0.1,0
		c-0.3,0-0.6,0.2-0.6,0.5C-341.6,591.7-341.5,591.9-341.4,592z"/>
</g>
</svg>
