<?xml version="1.0" encoding="utf-8"?>
<!-- Generator: Adobe Illustrator 19.1.0, SVG Export Plug-In . SVG Version: 6.00 Build 0)  -->
<svg version="1.1" id="Layer_1" xmlns="http://www.w3.org/2000/svg" xmlns:xlink="http://www.w3.org/1999/xlink" x="0px" y="0px"
	 viewBox="0 0 800.1 157" style="enable-background:new 0 0 800.1 157;" xml:space="preserve">
<style type="text/css">
	.st0{fill:url(#SVGID_1_);}
	.st1{fill:url(#SVGID_2_);}
	.st2{fill:#FFFFFF;}
	.st3{display:none;}
	.st4{display:inline;}
	.st5{fill:#1B181C;}
	.st6{fill:#0072BB;}
</style>
<linearGradient id="SVGID_1_" gradientUnits="userSpaceOnUse" x1="-0.125" y1="103.4296" x2="341.7645" y2="103.4296">
	<stop  offset="0.1379" style="stop-color:#77BC1F"/>
	<stop  offset="0.2741" style="stop-color:#84C235"/>
	<stop  offset="0.6468" style="stop-color:#A5D16B"/>
	<stop  offset="0.8276" style="stop-color:#B2D781"/>
</linearGradient>
<polygon class="st0" points="341.8,96.9 139.6,90.6 -0.1,97.7 -0.1,116.3 "/>
<linearGradient id="SVGID_2_" gradientUnits="userSpaceOnUse" x1="0" y1="106.9357" x2="800.127" y2="106.9357">
	<stop  offset="0" style="stop-color:#0C75B7"/>
	<stop  offset="0.4173" style="stop-color:#0C75B7"/>
	<stop  offset="0.5451" style="stop-color:#2079BA"/>
	<stop  offset="0.7258" style="stop-color:#3F83C0"/>
	<stop  offset="0.9372" style="stop-color:#6596CB"/>
	<stop  offset="1" style="stop-color:#719DCF"/>
</linearGradient>
<polygon class="st1" points="371.3,95 371.9,94.9 362.9,94.7 338.7,93.8 338.1,94 0,85.4 0,103.8 339.2,97.8 800.1,128.4
	800.1,106.6 "/>
<g>

		<image style="overflow:visible;opacity:0.75;" width="3405" height="514" xlink:href="699F4F60A1626A8C.png"  transform="matrix(0.24 0 0 0.24 -8.5039 -5.6693)">
	</image>
	<g>
		<polygon class="st2" points="800.1,106.2 371.3,94.7 371.9,94.6 362.9,94.4 338.7,93.5 338.1,93.7 0,85.1 0,0 800.1,0 		"/>
	</g>
</g>
<g class="st3">

		<image style="display:inline;overflow:visible;opacity:0.41;" width="3396" height="575" xlink:href="699F4F60A1626A8D.png"  transform="matrix(0.24 0 0 0.24 -5.9527 193.5632)">
	</image>
	<g class="st4">
		<polygon class="st2" points="801.3,323.7 0,301.3 0,199.5 801.3,199.5 		"/>
	</g>
</g>
<g>
	<path class="st5" d="M517.3,59.3h4.2c2.2,0,4.2,0.8,4.2,3.4c0,1.7-1.4,3.1-3,3.3v0c1.6,0.2,2.2,1.4,2.2,3c0,4-4.5,4.3-6.6,4.3h-4
		L517.3,59.3z M517.5,71.1h1c1.7,0,3.7-0.2,3.7-2.4c0-1.5-1.4-1.7-2.9-1.7h-0.9L517.5,71.1z M518.8,65h1.1c1.4,0,3-0.4,3-2
		c0-1.3-1.3-1.4-2.3-1.4h-1L518.8,65z"/>
	<path class="st5" d="M536.3,71.8c-0.1,0.6-0.2,1.2-0.3,1.5h-2.6l0.2-1h0c-0.7,0.7-1.8,1.2-2.9,1.2c-2,0-3.4-1.3-3.4-3.3
		c0-0.8,0.2-1.6,0.3-2.2l1.1-5h2.7l-1,4.9c-0.1,0.7-0.3,1.4-0.3,2.2c0,0.9,0.6,1.4,1.5,1.4c1.9,0,2.5-1.7,2.9-3.3l1.1-5.2h2.7
		L536.3,71.8z"/>
	<path class="st5" d="M546.6,65.2c-0.7-0.3-1.4-0.5-2.2-0.5c-0.8,0-1.8,0.2-1.8,1c0,1.3,3.5,1.8,3.5,4.3c0,2.7-2.3,3.5-4.7,3.5
		c-1.1,0-2.2-0.2-3.2-0.6l0.6-2.1c0.8,0.4,1.5,0.8,2.6,0.8c0.9,0,1.8-0.3,1.8-1.1c0-1.7-3.5-1.8-3.5-4.4c0-2.4,2.3-3.3,4.5-3.3
		c1,0,2,0.2,2.9,0.4L546.6,65.2z"/>
	<path class="st5" d="M549.7,63h2.7l-2.2,10.3h-2.7L549.7,63z M550.7,58.5h2.7l-0.6,2.6h-2.7L550.7,58.5z"/>
	<path class="st5" d="M554.9,64.5c0.1-0.6,0.2-1.2,0.3-1.5h2.6l-0.2,1h0c0.7-0.7,1.8-1.2,2.9-1.2c2,0,3.4,1.3,3.4,3.3
		c0,0.8-0.2,1.6-0.3,2.2l-1.1,5h-2.7l1-4.9c0.1-0.7,0.3-1.4,0.3-2.2c0-0.9-0.6-1.4-1.5-1.4c-1.9,0-2.5,1.7-2.9,3.3l-1.1,5.2H553
		L554.9,64.5z"/>
	<path class="st5" d="M567.9,69c0,1.9,1,2.6,2.9,2.6c1.1,0,2.2-0.3,3.2-0.7l-0.3,2.1c-1,0.3-2.2,0.6-3.3,0.6c-3,0-5-1.4-5-4.5
		c0-3.2,2.5-6.3,5.9-6.3c2.5,0,4.2,1.3,4.2,3.9c0,0.8-0.1,1.5-0.3,2.3H567.9z M572.8,67.1c0-0.2,0.1-0.5,0.1-0.7
		c0-1.1-0.6-1.7-1.7-1.7c-1.7,0-2.4,1-2.9,2.4H572.8z"/>
	<path class="st5" d="M584.1,65.2c-0.7-0.3-1.4-0.5-2.2-0.5c-0.8,0-1.8,0.2-1.8,1c0,1.3,3.5,1.8,3.5,4.3c0,2.7-2.4,3.5-4.7,3.5
		c-1.1,0-2.2-0.2-3.2-0.6l0.6-2.1c0.8,0.4,1.5,0.8,2.6,0.8c0.9,0,1.8-0.3,1.8-1.1c0-1.7-3.5-1.8-3.5-4.4c0-2.4,2.3-3.3,4.5-3.3
		c1,0,2,0.2,2.9,0.4L584.1,65.2z"/>
	<path class="st5" d="M593,65.2c-0.7-0.3-1.4-0.5-2.2-0.5c-0.8,0-1.8,0.2-1.8,1c0,1.3,3.5,1.8,3.5,4.3c0,2.7-2.3,3.5-4.7,3.5
		c-1.1,0-2.2-0.2-3.2-0.6l0.6-2.1c0.8,0.4,1.5,0.8,2.6,0.8c0.9,0,1.8-0.3,1.8-1.1c0-1.7-3.5-1.8-3.5-4.4c0-2.4,2.3-3.3,4.5-3.3
		c1,0,2,0.2,2.9,0.4L593,65.2z"/>
	<path class="st5" d="M609.6,62c-0.8-0.4-1.9-0.7-2.9-0.7c-1,0-2.3,0.4-2.3,1.6c0,2.2,4.8,2.1,4.8,6c0,3.4-2.7,4.7-5.8,4.7
		c-1.3,0-2.7-0.3-4-0.8l0.7-2.4c1.1,0.5,2.2,1,3.4,1c1.3,0,2.7-0.7,2.7-2.2c0-2.5-4.8-2.1-4.8-5.9c0-2.9,2.5-4.2,5.2-4.2
		c1.2,0,2.5,0.2,3.6,0.6L609.6,62z"/>
	<path class="st5" d="M613.4,69c0,1.9,1,2.6,2.9,2.6c1.1,0,2.2-0.3,3.2-0.7l-0.3,2.1c-1,0.3-2.2,0.6-3.3,0.6c-3,0-5-1.4-5-4.5
		c0-3.2,2.5-6.3,5.9-6.3c2.5,0,4.2,1.3,4.2,3.9c0,0.8-0.1,1.5-0.3,2.3H613.4z M618.4,67.1c0-0.2,0.1-0.5,0.1-0.7
		c0-1.1-0.6-1.7-1.7-1.7c-1.7,0-2.4,1-2.9,2.4H618.4z"/>
	<path class="st5" d="M623.7,64.4c0.1-0.4,0.2-0.9,0.2-1.4h2.6l-0.4,1.9h0c0.5-1.1,1.8-2.2,3.1-2.2c0.3,0,0.7,0,1,0.1l-0.6,2.6
		c-0.3-0.1-0.7-0.2-1-0.2c-1.9,0-2.8,1.7-3.2,3.4l-1,4.6h-2.7L623.7,64.4z"/>
	<path class="st5" d="M631,63h2.8l1,7.6h0l4.1-7.6h2.8l-6,10.3h-3L631,63z"/>
	<path class="st5" d="M643.3,63h2.7l-2.2,10.3h-2.7L643.3,63z M644.3,58.5h2.7l-0.6,2.6h-2.7L644.3,58.5z"/>
	<path class="st5" d="M655,65.3c-0.5-0.3-1.2-0.5-2-0.5c-2.1,0-3.4,2-3.4,4c0,1.3,0.4,2.7,2.3,2.7c0.7,0,1.5-0.2,2.2-0.5l-0.3,2.1
		c-0.8,0.4-1.7,0.5-2.6,0.5c-2.7,0-4.4-1.8-4.4-4.5c0-3.6,2.4-6.4,6.1-6.4c1,0,2,0.2,2.7,0.4L655,65.3z"/>
	<path class="st5" d="M658.4,69c0,1.9,1,2.6,2.9,2.6c1.1,0,2.2-0.3,3.2-0.7l-0.3,2.1c-1,0.3-2.2,0.6-3.3,0.6c-3,0-5-1.4-5-4.5
		c0-3.2,2.5-6.3,5.9-6.3c2.5,0,4.2,1.3,4.2,3.9c0,0.8-0.1,1.5-0.3,2.3H658.4z M663.3,67.1c0-0.2,0.1-0.5,0.1-0.7
		c0-1.1-0.6-1.7-1.7-1.7c-1.7,0-2.4,1-2.9,2.4H663.3z"/>
	<path class="st5" d="M674.6,65.2c-0.7-0.3-1.4-0.5-2.2-0.5c-0.8,0-1.8,0.2-1.8,1c0,1.3,3.5,1.8,3.5,4.3c0,2.7-2.3,3.5-4.7,3.5
		c-1.1,0-2.2-0.2-3.2-0.6l0.6-2.1c0.8,0.4,1.5,0.8,2.6,0.8c0.9,0,1.8-0.3,1.8-1.1c0-1.7-3.5-1.8-3.5-4.4c0-2.4,2.3-3.3,4.5-3.3
		c1,0,2,0.2,2.9,0.4L674.6,65.2z"/>
	<path class="st5" d="M688.4,59.3h3.1l2.5,14h-2.8l-0.5-3.2h-6l-1.8,3.2h-3.1L688.4,59.3z M686.1,67.9h4.3l-0.9-6.1h-0.1L686.1,67.9
		z"/>
	<path class="st5" d="M705.1,71.8c-0.1,0.6-0.2,1.2-0.3,1.5h-2.6l0.2-1h0c-0.7,0.7-1.8,1.2-2.9,1.2c-2,0-3.4-1.3-3.4-3.3
		c0-0.8,0.2-1.6,0.3-2.2l1.1-5h2.7l-1,4.9c-0.1,0.7-0.3,1.4-0.3,2.2c0,0.9,0.6,1.4,1.5,1.4c1.9,0,2.5-1.7,2.9-3.3l1.1-5.2h2.7
		L705.1,71.8z"/>
	<path class="st5" d="M708.6,63h1.9l0.5-2.1l2.9-0.9l-0.7,3.1h2.4l-0.4,2h-2.4l-1,4.5c-0.1,0.2-0.1,0.6-0.1,1c0,0.6,0.4,1,1,1
		c0.5,0,1-0.1,1.3-0.2l-0.5,2.1c-0.5,0.1-1,0.2-1.4,0.2c-1.8,0-3.1-0.7-3.1-2.7c0-0.8,0.2-1.6,0.3-2.4l0.8-3.5h-1.9L708.6,63z"/>
	<path class="st5" d="M718.3,58.3h2.7l-1.3,5.7h0c0.7-0.7,1.8-1.2,2.9-1.2c2,0,3.4,1.3,3.4,3.3c0,0.8-0.2,1.6-0.3,2.2l-1.1,5H722
		l1-4.9c0.1-0.7,0.3-1.4,0.3-2.2c0-0.9-0.6-1.4-1.5-1.4c-1.9,0-2.5,1.7-2.9,3.3l-1.1,5.2h-2.7L718.3,58.3z"/>
	<path class="st5" d="M738.5,67.3c0,3.6-2.5,6.3-6.2,6.3c-2.9,0-4.7-1.8-4.7-4.7c0-3.5,2.6-6.1,6.1-6.1
		C736.5,62.7,738.5,64.4,738.5,67.3z M735.7,67.3c0-1.3-0.5-2.5-2-2.5c-2.1,0-3.2,2.3-3.2,4.2c0,1.4,0.6,2.4,2.1,2.4
		C734.6,71.5,735.7,69.1,735.7,67.3z"/>
	<path class="st5" d="M741.3,64.4c0.1-0.4,0.2-0.9,0.2-1.4h2.6l-0.4,1.9h0c0.5-1.1,1.8-2.2,3-2.2c0.3,0,0.7,0,1,0.1l-0.6,2.6
		c-0.3-0.1-0.7-0.2-1-0.2c-1.9,0-2.8,1.7-3.2,3.4l-1,4.6h-2.7L741.3,64.4z"/>
	<path class="st5" d="M749.3,63h2.7l-2.2,10.3h-2.7L749.3,63z M750.3,58.5h2.7l-0.6,2.6h-2.7L750.3,58.5z"/>
	<path class="st5" d="M753.5,63h1.9l0.5-2.1l2.9-0.9l-0.7,3.1h2.4l-0.4,2h-2.4l-1,4.5c-0.1,0.2-0.1,0.6-0.1,1c0,0.6,0.4,1,1,1
		c0.5,0,1-0.1,1.3-0.2l-0.5,2.1c-0.5,0.1-1,0.2-1.4,0.2c-1.8,0-3.1-0.7-3.1-2.7c0-0.8,0.2-1.6,0.3-2.4l0.8-3.5h-1.9L753.5,63z"/>
	<path class="st5" d="M764.3,63l1,7.7h0l4.1-7.7h3l-7,11.9c-0.8,1.4-1.8,2.9-4.1,2.9c-0.7,0-1.3-0.1-2-0.3l0.6-2
		c0.3,0.1,0.6,0.2,1.2,0.2c0.8,0,1.4-0.4,2.3-1.9L761.5,63H764.3z"/>
</g>
<rect x="712" y="29.2" class="st6" width="59.4" height="24"/>
<path class="st2" d="M717.8,31.5h6.5l4,13.4h0.1l2.7-13.4h4.9l-4.1,19.4h-6.4l-4-13.4h-0.1l-2.7,13.4h-4.9L717.8,31.5z"/>
<path class="st2" d="M737.8,31.5h5.2l-1.5,7.4h6.1l1.5-7.4h5.2l-4,19.4h-5.2l1.7-8.3h-6.1l-1.7,8.3h-5.2L737.8,31.5z"/>
<path class="st2" d="M768,35.9c-1-0.5-2.4-0.9-4.3-0.9c-2.1,0-3.7,0.3-3.7,1.9c0,2.7,7.5,1.7,7.5,7.6c0,5.4-5,6.7-9.5,6.7
	c-2,0-4.3-0.5-6-1l1.2-3.9c1,0.7,3.1,1.1,4.8,1.1c1.6,0,4.1-0.3,4.1-2.3c0-3.1-7.5-1.9-7.5-7.4c0-5,4.4-6.5,8.6-6.5
	c2.4,0,4.6,0.2,5.9,0.9L768,35.9z"/>
</svg>
