<?xml version="1.0" encoding="utf-8"?>
<!-- Generator: Adobe Illustrator 19.1.0, SVG Export Plug-In . SVG Version: 6.00 Build 0)  -->
<svg version="1.1" id="Layer_1" xmlns="http://www.w3.org/2000/svg" xmlns:xlink="http://www.w3.org/1999/xlink" x="0px" y="0px"
	 viewBox="-400 570.5 40 35.5" style="enable-background:new -400 570.5 40 35.5;" xml:space="preserve">
<style type="text/css">
	.st0{fill:#FFFFFF;}
</style>
<g>
	<path d="M-429.7,571.2c-4.2-4.2-11.4-3.9-15.9,0.7l-19.7,19.7c-4.6,4.6-4.9,11.7-0.7,15.9c4.2,4.2,11.4,3.9,15.9-0.7l19.7-19.7
		C-425.8,582.6-425.5,575.4-429.7,571.2z M-431.9,585.7l-9.9,9.9l-12.2-12.2l9.9-9.9c3.8-3.8,9.5-4.1,12.9-0.7
		C-427.8,576.1-428.1,581.9-431.9,585.7z"/>
	<path d="M-411.9,593.2c-3.5-3.5-9-3.9-12.9-1.1l14,14C-408.1,602.2-408.4,596.7-411.9,593.2z"/>
	<path d="M-426.1,607.4c3.5,3.5,9,3.9,12.9,1.1l-14-14C-430,598.5-429.6,603.9-426.1,607.4z"/>
</g>
<g>
	<path class="st0" d="M-373.8,577.3c-2.8-2.8-7.6-2.6-10.6,0.5l-13.1,13.1c-3.1,3.1-3.3,7.8-0.5,10.6c2.8,2.8,7.6,2.6,10.6-0.5
		l13.1-13.1C-371.2,584.9-371,580.1-373.8,577.3z M-375.3,586.9l-6.6,6.6l-8.2-8.2l6.6-6.6c2.5-2.5,6.4-2.7,8.6-0.5
		C-372.5,580.6-372.8,584.4-375.3,586.9z"/>
	<path class="st0" d="M-362,592c-2.3-2.3-6-2.6-8.6-0.7l9.3,9.3C-359.4,597.9-359.6,594.3-362,592z"/>
	<path class="st0" d="M-371.4,601.4c2.3,2.3,6,2.6,8.6,0.7l-9.3-9.3C-374,595.4-373.8,599.1-371.4,601.4z"/>
</g>
<g>
	<path d="M-332.3,580.3c-2.1-2.1-5.7-1.9-8,0.3l-9.9,9.9c-2.3,2.3-2.4,5.9-0.3,8c2.1,2.1,5.7,1.9,8-0.3l9.9-9.9
		C-330.4,586-330.2,582.4-332.3,580.3z M-333.4,587.5l-4.9,4.9l-6.1-6.1l4.9-4.9c1.9-1.9,4.8-2,6.5-0.3
		C-331.4,582.8-331.6,585.7-333.4,587.5z"/>
	<path d="M-323.5,591.3c-1.8-1.8-4.5-1.9-6.4-0.5l7,7C-321.5,595.8-321.7,593.1-323.5,591.3z"/>
	<path d="M-330.6,598.4c1.8,1.8,4.5,1.9,6.4,0.5l-7-7C-332.5,593.9-332.3,596.7-330.6,598.4z"/>
</g>
<g>
	<path d="M-302.9,583.4c-1.4-1.4-3.8-1.3-5.3,0.2l-6.6,6.6c-1.5,1.5-1.6,3.9-0.2,5.3c1.4,1.4,3.8,1.3,5.3-0.2l6.6-6.6
		C-301.6,587.1-301.5,584.8-302.9,583.4z M-303.6,588.2l-3.3,3.3l-4.1-4.1l3.3-3.3c1.3-1.3,3.2-1.4,4.3-0.2
		C-302.3,585-302.4,586.9-303.6,588.2z"/>
	<path d="M-297,590.7c-1.2-1.2-3-1.3-4.3-0.4l4.7,4.7C-295.7,593.7-295.8,591.9-297,590.7z"/>
	<path d="M-301.7,595.4c1.2,1.2,3,1.3,4.3,0.4l-4.7-4.7C-303,592.4-302.9,594.2-301.7,595.4z"/>
</g>
</svg>
