<?xml version="1.0" encoding="utf-8"?>
<!-- Generator: Adobe Illustrator 19.1.0, SVG Export Plug-In . SVG Version: 6.00 Build 0)  -->
<svg version="1.1" id="Layer_1" xmlns="http://www.w3.org/2000/svg" xmlns:xlink="http://www.w3.org/1999/xlink" x="0px" y="0px"
	 viewBox="-370 562.1 100 44" style="enable-background:new -370 562.1 100 44;" xml:space="preserve">
<style type="text/css">
	.st0{display:none;}
	.st1{display:inline;}
	.st2{fill:#FFFFFF;}
</style>
<g class="st0">
	<rect x="-365" y="538" class="st1" width="90" height="91"/>
</g>
<g>
	<g>
		<path class="st2" d="M-279,566.5h-80.2c-2.2,0-4,1.8-4,4v13c-1.1,0.4-1.8,1.5-1.8,2.7v7.3c0,1.6,1.3,3,3,3h2.8h1.5h10.3
			c0-3.5,2.8-6.3,6.3-6.3s6.3,2.8,6.3,6.3h27.8c0-3.5,2.8-6.3,6.3-6.3s6.3,2.8,6.3,6.3h9.8c0.4,0,0.9-0.1,1.3-0.2l5.7-3.7
			c1.6-0.6,2.7-2.1,2.7-3.8v-18.3C-275,568.3-276.8,566.5-279,566.5z M-350.8,591.2c0,1.1-0.9,2-2,2h-4.5c-1.1,0-2-0.9-2-2v-18.9
			c0-1.1,0.9-2,2-2h4.5c1.1,0,2,0.9,2,2V591.2z M-332.7,577.2c0,1.6-1.3,2.8-2.8,2.8h-8.2c-1.6,0-2.8-1.3-2.8-2.8v-4.1
			c0-1.6,1.3-2.8,2.8-2.8h8.2c1.6,0,2.8,1.3,2.8,2.8V577.2z M-314.8,577.2c0,1.6-1.3,2.8-2.8,2.8h-8.2c-1.6,0-2.8-1.3-2.8-2.8v-4.1
			c0-1.6,1.3-2.8,2.8-2.8h8.2c1.6,0,2.8,1.3,2.8,2.8V577.2z M-297,577.2c0,1.6-1.3,2.8-2.8,2.8h-8.2c-1.6,0-2.8-1.3-2.8-2.8v-4.1
			c0-1.6,1.3-2.8,2.8-2.8h8.2c1.6,0,2.8,1.3,2.8,2.8V577.2z M-279.1,577.2c0,1.6-1.3,2.8-2.8,2.8h-8.2c-1.6,0-2.8-1.3-2.8-2.8v-4.1
			c0-1.6,1.3-2.8,2.8-2.8h8.1c1.6,0,2.8,1.3,2.8,2.8v4.1H-279.1z"/>
		<path class="st2" d="M-341.3,592.3c-2.3,0-4.1,1.8-4.1,4.1c0,2.3,1.8,4.1,4.1,4.1c2.3,0,4.1-1.8,4.1-4.1
			C-337.3,594.2-339.1,592.3-341.3,592.3z M-341.3,598.3c-1,0-1.9-0.8-1.9-1.9c0-1,0.8-1.9,1.9-1.9c1,0,1.9,0.8,1.9,1.9
			C-339.5,597.4-340.3,598.3-341.3,598.3z"/>
		<path class="st2" d="M-300.8,592.3c-2.3,0-4.1,1.8-4.1,4.1c0,2.3,1.8,4.1,4.1,4.1c2.3,0,4.1-1.8,4.1-4.1
			C-296.7,594.2-298.5,592.3-300.8,592.3z M-300.8,598.3c-1,0-1.9-0.8-1.9-1.9c0-1,0.8-1.9,1.9-1.9c1.1,0,1.9,0.8,1.9,1.9
			C-298.9,597.4-299.7,598.3-300.8,598.3z"/>
	</g>
</g>
</svg>
