<?xml version="1.0" encoding="utf-8"?>
<!-- Generator: Adobe Illustrator 19.1.0, SVG Export Plug-In . SVG Version: 6.00 Build 0)  -->
<svg version="1.1" id="Layer_1" xmlns="http://www.w3.org/2000/svg" xmlns:xlink="http://www.w3.org/1999/xlink" x="0px" y="0px"
	 viewBox="-370 533.5 100 101.6" style="enable-background:new -370 533.5 100 101.6;" xml:space="preserve">
<style type="text/css">
	.st0{fill:#808080;}
</style>
<path class="st0" d="M-319.6,539.6c-44.8-14.3-39.9,49.2-38.4,74.7c1.5,24.9,38.4,13.6,38.4,13.6s36.9,11.3,38.4-13.6
	C-279.7,588.9-272.4,526.6-319.6,539.6z M-293.6,602.8c-2.1,5.6-7.6,13.4-14.7,18.9c-6.2,4.9-11.3,2.7-11.3,2.7s-5.1,2.2-11.3-2.7
	c-7.1-5.5-12.5-13.3-14.7-18.9c-2.5-6.6-3.9-19.6-1.5-30.3c1-4.6,3-10.2,6.5-14.9c1.5,5,6.4,14.1,22,15.1
	c14.1,0.9,22.5,0.6,26.7,0.3C-289.7,583.6-291.1,596.3-293.6,602.8z"/>
</svg>
